<svg width="82" height="82" viewBox="0 0 82 82" fill="none" xmlns="http://www.w3.org/2000/svg">
<path d="M56.625 62.875V73.711C56.625 78.0782 53.0703 81.6251 48.7109 81.6251H8.28892C3.92952 81.6251 0.374817 78.0704 0.374817 73.711V8.28901C0.374817 3.92961 3.92952 0.374908 8.28892 0.374908H48.7029C53.0701 0.374908 56.6248 3.92961 56.6248 8.28901V19.125C56.6248 20.8516 55.2264 22.25 53.4998 22.25C51.7732 22.25 50.3748 20.8516 50.3748 19.125V8.28901C50.3748 7.36714 49.6248 6.62491 48.7107 6.62491H8.28872C7.37466 6.62491 6.62462 7.37491 6.62462 8.28901V73.703C6.62462 74.6249 7.37462 75.3671 8.28872 75.3671H48.7027C49.6246 75.3671 50.3668 74.6171 50.3668 73.703V62.875C50.3668 61.1484 51.7652 59.75 53.4918 59.75C55.2184 59.75 56.625 61.1484 56.625 62.875ZM81.102 42.734C81.1489 42.6559 81.188 42.5778 81.227 42.4996C81.2817 42.3981 81.3442 42.3043 81.3833 42.1949C81.4223 42.0934 81.4536 41.984 81.4848 41.8746C81.5083 41.7887 81.5473 41.7027 81.563 41.609C81.6411 41.2028 81.6411 40.7887 81.563 40.3824C81.5473 40.2887 81.5083 40.2027 81.4848 40.1168C81.4536 40.0074 81.4301 39.9058 81.3833 39.7965C81.3364 39.6871 81.2817 39.5934 81.227 39.4918C81.1801 39.4137 81.1489 39.3277 81.102 39.2574C80.9848 39.0855 80.8598 38.9215 80.7114 38.7808L65.0864 23.1558C63.8676 21.937 61.8833 21.937 60.6645 23.1558C59.4457 24.3746 59.4457 26.3511 60.6645 27.5777L70.9535 37.8747H25.3755C23.6489 37.8747 22.2505 39.2731 22.2505 40.9997C22.2505 42.7263 23.6489 44.1247 25.3755 44.1247H70.9535L60.6645 54.4137C59.4457 55.6325 59.4457 57.609 60.6645 58.8356C61.2739 59.445 62.0786 59.7497 62.8754 59.7497C63.6722 59.7497 64.477 59.445 65.0863 58.8356L80.7113 43.2106C80.8519 43.0622 80.9848 42.9059 81.102 42.734Z" fill="white"/>
</svg>
